<svg width="79" height="79" viewBox="0 0 79 79" fill="none" xmlns="http://www.w3.org/2000/svg">
<path d="M66.0638 20.9021H49.375V25.5434H66.1296L66.0638 20.9021ZM62.5417 52.8313C61.2756 53.6702 59.7805 54.0957 58.2625 54.0492C57.2577 54.1539 56.242 54.0501 55.2791 53.7443C54.3162 53.4384 53.4269 52.9371 52.6667 52.2717C51.2612 50.6781 50.5295 48.601 50.6258 46.4784H72.4167C72.5737 44.2682 72.3849 42.047 71.8571 39.895C71.3465 37.8477 70.453 35.9155 69.2238 34.2004C67.9865 32.5368 66.3885 31.1751 64.5496 30.2175C62.5036 29.2088 60.2471 28.701 57.9663 28.7363C55.8211 28.7206 53.6946 29.1347 51.7121 29.9542C49.8967 30.7195 48.2519 31.8384 46.8733 33.2459C45.4987 34.6814 44.4343 36.3845 43.7463 38.2492C43.0079 40.2622 42.6399 42.3922 42.66 44.5363C42.6261 46.7108 42.9829 48.8737 43.7133 50.9221C44.3338 52.7771 45.3186 54.4893 46.61 55.9584C47.9461 57.4006 49.5882 58.5254 51.4158 59.25C53.4537 60.0265 55.6212 60.4063 57.8017 60.3692C60.861 60.4646 63.8815 59.6637 66.4917 58.065C69.128 56.1916 71.0261 53.4552 71.8571 50.3296H64.5825C64.1931 51.3636 63.4764 52.2421 62.5417 52.8313ZM51.2513 39.2696C51.5074 38.4489 51.9327 37.691 52.4996 37.0447C53.0666 36.3984 53.7626 35.878 54.5429 35.5171C55.5764 35.0519 56.7017 34.8269 57.8346 34.8588C58.653 34.7889 59.4767 34.8968 60.2495 35.1752C61.0222 35.4536 61.7255 35.8959 62.3113 36.4717C63.4297 37.8408 64.1475 39.4927 64.385 41.2446H50.7246C50.7779 40.5757 50.8992 39.9139 51.0867 39.2696H51.2513ZM33.8383 37.6896C35.5137 36.992 36.9694 35.8547 38.0517 34.3979C39.0465 32.8509 39.5407 31.0349 39.4671 29.1971C39.5316 27.5211 39.2048 25.8531 38.5125 24.3254C37.9309 23.0019 36.9973 21.8634 35.8133 21.0338C34.5581 20.1713 33.1326 19.5876 31.6329 19.3221C29.8581 18.9499 28.0479 18.7733 26.2346 18.7954H6.58334V60.2046H26.6625C28.4949 60.2059 30.3201 59.9736 32.0938 59.5134C33.775 59.0784 35.3677 58.3545 36.8008 57.3738C38.1891 56.4117 39.3195 55.123 40.0925 53.6213C40.948 51.9418 41.3669 50.074 41.3104 48.19C41.3728 45.8554 40.7179 43.5577 39.4342 41.6067C38.0536 39.6446 36.006 38.2522 33.6738 37.6896H33.8383ZM15.7013 25.8725H24.2267C25.0099 25.8716 25.7918 25.9376 26.5638 26.07C27.2746 26.1754 27.9572 26.4216 28.5717 26.7942C29.1653 27.13 29.6463 27.6339 29.9542 28.2425C30.3354 28.9723 30.5171 29.7899 30.4808 30.6125C30.5422 31.321 30.4338 32.0339 30.1648 32.6922C29.8958 33.3505 29.4738 33.9352 28.9338 34.3979C27.7557 35.2078 26.3461 35.6122 24.9179 35.55H15.7013V25.8725ZM31.6329 50.3625C31.2947 51.0334 30.7833 51.6016 30.1517 52.0084C29.4943 52.4172 28.7701 52.7069 28.0121 52.8642C27.1696 53.0528 26.3078 53.1412 25.4446 53.1275H15.5696V41.7713H25.4446C27.1392 41.6971 28.8127 42.1703 30.2175 43.1209C30.8522 43.6904 31.3438 44.4014 31.6526 45.1963C31.9614 45.9912 32.0787 46.8476 31.995 47.6963C32.084 48.6011 31.96 49.5142 31.6329 50.3625Z" fill="black"/>
</svg>
