<svg width="47" height="67" viewBox="0 0 47 67" fill="none" xmlns="http://www.w3.org/2000/svg">
<path d="M36.6666 0.583344H10.3333C7.71426 0.583344 5.20252 1.62374 3.3506 3.47566C1.49868 5.32759 0.458278 7.83933 0.458278 10.4583V63.125C0.455975 63.705 0.606978 64.2754 0.895997 64.7783C1.18502 65.2812 1.60179 65.6988 2.10411 65.9888C2.60451 66.2777 3.17214 66.4298 3.74994 66.4298C4.32775 66.4298 4.89538 66.2777 5.39578 65.9888L23.4999 55.5213L41.6041 65.9888C42.1058 66.2731 42.6733 66.4207 43.2499 66.4167C43.8266 66.4207 44.3941 66.2731 44.8958 65.9888C45.3981 65.6988 45.8149 65.2812 46.1039 64.7783C46.3929 64.2754 46.5439 63.705 46.5416 63.125V10.4583C46.5416 7.83933 45.5012 5.32759 43.6493 3.47566C41.7974 1.62374 39.2856 0.583344 36.6666 0.583344ZM39.9583 57.4304L25.1458 48.8721C24.6454 48.5832 24.0778 48.4311 23.4999 48.4311C22.9221 48.4311 22.3545 48.5832 21.8541 48.8721L7.04161 57.4304V10.4583C7.04161 9.58534 7.38841 8.74809 8.00572 8.13078C8.62302 7.51348 9.46027 7.16668 10.3333 7.16668H36.6666C37.5396 7.16668 38.3769 7.51348 38.9942 8.13078C39.6115 8.74809 39.9583 9.58534 39.9583 10.4583V57.4304Z" fill="#69A0FB"/>
</svg>
