<svg width="79" height="79" viewBox="0 0 79 79" fill="none" xmlns="http://www.w3.org/2000/svg">
<path d="M73.2878 7.99132C72.3506 7.21163 71.2196 6.70064 70.015 6.51272C68.8105 6.32479 67.5775 6.46697 66.4473 6.92413L7.45769 30.7405C6.19616 31.2595 5.12231 32.1499 4.37867 33.2936C3.63503 34.4372 3.25676 35.7799 3.29408 37.1435C3.3314 38.5072 3.78254 39.8272 4.58762 40.9284C5.3927 42.0296 6.51364 42.86 7.80167 43.3093L19.734 47.4592L26.3848 69.4529C26.4752 69.7467 26.6063 70.0264 26.7744 70.2837C26.8 70.3232 26.8359 70.3526 26.8631 70.391C27.0573 70.662 27.292 70.9015 27.559 71.1012C27.635 71.1591 27.7077 71.2133 27.7888 71.2647C28.1013 71.472 28.4474 71.6236 28.8117 71.7128L28.8506 71.716L28.8727 71.7255C29.0917 71.7701 29.3146 71.7927 29.5381 71.793C29.5596 71.793 29.5787 71.7827 29.6 71.7823C29.9373 71.7765 30.2716 71.7184 30.5911 71.6102C30.6654 71.5848 30.7291 71.5425 30.8012 71.5119C31.0395 71.4132 31.2652 71.2866 31.4737 71.1348C31.6407 70.9941 31.8077 70.8535 31.9747 70.7129L40.8694 60.8926L54.1357 71.1694C55.3036 72.0787 56.7412 72.5729 58.2213 72.5742C59.7723 72.5722 61.2754 72.037 62.4787 71.0585C63.682 70.0799 64.5123 68.7174 64.8304 67.1994L75.5701 14.4782C75.8135 13.2917 75.7297 12.0612 75.3277 10.9186C74.9257 9.77596 74.2206 8.76412 73.2878 7.99132ZM30.8433 48.5071C30.3869 48.9617 30.0749 49.541 29.9465 50.1723L28.9277 55.1229L26.3468 46.5874L39.7283 39.6191L30.8433 48.5071ZM58.17 65.965L42.4927 53.8206C41.8368 53.3138 41.0141 53.0727 40.1884 53.1454C39.3627 53.2181 38.5947 53.5992 38.0374 54.2128L35.1888 57.357L36.1955 52.4641L59.5104 29.1492C60.0669 28.5934 60.4059 27.8567 60.4661 27.0726C60.5263 26.2884 60.3037 25.5086 59.8386 24.8744C59.3734 24.2402 58.6965 23.7935 57.9305 23.6154C57.1644 23.4372 56.3599 23.5393 55.6626 23.9031L22.2019 41.3247L9.94254 36.8384L69.1217 13.1634L58.17 65.965Z" fill="black"/>
</svg>
