<svg width="202" height="48" viewBox="0 0 202 48" fill="none" xmlns="http://www.w3.org/2000/svg">
<path d="M5.61147 30.2869C4.16604 30.2869 2.97419 29.853 2.03592 28.9851C1.09766 28.0916 0.615849 26.943 0.590491 25.539V13.8225H4.128V24.2755C4.17872 25.1434 4.4323 25.8453 4.88876 26.3814C5.34521 26.9174 6.05525 27.1982 7.01887 27.2238C7.88106 27.2238 8.66717 26.9685 9.37721 26.458C10.0872 25.9219 10.6451 25.2072 11.0509 24.3138C11.482 23.3948 11.6975 22.361 11.6975 21.2123V13.8225H15.235V29.6743H12.0399L11.7736 26.6877C11.2664 27.7343 10.4549 28.6022 9.33917 29.2914C8.24876 29.9551 7.00619 30.2869 5.61147 30.2869Z" fill="white"/>
<path d="M21.3924 0H24.9299V29.6743H21.3924V0Z" fill="white"/>
<path d="M31.0875 13.8225H34.6251V29.6743H31.0875V13.8225ZM30.8213 8.11735C30.8213 7.53025 31.0368 7.05801 31.4679 6.70064C31.9244 6.31775 32.4189 6.1263 32.9514 6.1263C33.4839 6.1263 33.9657 6.31775 34.3968 6.70064C34.8279 7.05801 35.0435 7.53025 35.0435 8.11735C35.0435 8.70445 34.8279 9.18945 34.3968 9.57235C33.9657 9.92971 33.4839 10.1084 32.9514 10.1084C32.4189 10.1084 31.9244 9.92971 31.4679 9.57235C31.0368 9.18945 30.8213 8.70445 30.8213 8.11735Z" fill="white"/>
<path d="M47.3632 30.0572C45.8671 30.0572 44.5104 29.7381 43.2932 29.0999C42.1013 28.4618 41.1504 27.5301 40.4404 26.3048C39.7557 25.054 39.4133 23.5352 39.4133 21.7484C39.4133 19.9615 39.7684 18.43 40.4784 17.1536C41.2138 15.8773 42.1901 14.8946 43.4073 14.2054C44.6499 13.5162 46.0066 13.1715 47.4773 13.1715C48.8974 13.1715 50.102 13.4779 51.0909 14.0905C52.0799 14.7031 52.8533 15.4434 53.4112 16.3113L53.6775 13.8225H56.9488V29.6743H53.4112V27.0706C53.1069 27.479 52.6632 27.913 52.0799 28.3724C51.522 28.8319 50.8374 29.2276 50.0259 29.5594C49.2398 29.8912 48.3522 30.0572 47.3632 30.0572ZM48.3142 27.1089C49.6075 27.1089 50.7106 26.7515 51.6235 26.0368C52.5364 25.2965 53.1323 24.301 53.4112 23.0502V19.9105C53.1069 18.8129 52.473 17.9067 51.5093 17.1919C50.5457 16.4772 49.4426 16.1198 48.2001 16.1198C47.2364 16.1198 46.3616 16.3496 45.5755 16.809C44.7893 17.2685 44.1554 17.9067 43.6736 18.7235C43.2171 19.5403 42.9889 20.4848 42.9889 21.5569C42.9889 22.6035 43.2298 23.548 43.7116 24.3903C44.1934 25.2072 44.8401 25.8709 45.6515 26.3814C46.463 26.8664 47.3506 27.1089 48.3142 27.1089Z" fill="white"/>
<path d="M66.3028 13.8225L66.531 16.8856C67.0635 15.7625 67.8877 14.869 69.0034 14.2054C70.1192 13.5417 71.4125 13.2098 72.8833 13.2098C74.3541 13.2098 75.5586 13.6565 76.4969 14.55C77.4605 15.4179 77.9677 16.5538 78.0184 17.9577V29.6743H74.4428V19.183C74.3921 18.3406 74.1259 17.6514 73.644 17.1154C73.1876 16.5793 72.4649 16.2985 71.4759 16.273C70.1065 16.273 68.9527 16.8346 68.0145 17.9577C67.1015 19.0554 66.6451 20.4848 66.6451 22.2461V29.6743H63.1076V13.8225H66.3028Z" fill="white"/>
<path d="M90.7129 30.0572C89.2167 30.0572 87.8601 29.7381 86.6428 29.0999C85.451 28.4618 84.5001 27.5301 83.79 26.3048C83.1053 25.054 82.763 23.5352 82.763 21.7484C82.763 19.9615 83.118 18.43 83.828 17.1536C84.5634 15.8773 85.5398 14.8946 86.757 14.2054C87.9995 13.5162 89.3562 13.1715 90.827 13.1715C92.2471 13.1715 93.4516 13.4779 94.4406 14.0905C95.4296 14.7031 96.203 15.4434 96.7609 16.3113L97.0272 13.8225H100.298V29.6743H96.7609V27.0706C96.4566 27.479 96.0128 27.913 95.4296 28.3724C94.8717 28.8319 94.187 29.2276 93.3755 29.5594C92.5894 29.8912 91.7019 30.0572 90.7129 30.0572ZM91.6638 27.1089C92.9571 27.1089 94.0602 26.7515 94.9731 26.0368C95.886 25.2965 96.4819 24.301 96.7609 23.0502V19.9105C96.4566 18.8129 95.8226 17.9067 94.859 17.1919C93.8954 16.4772 92.7923 16.1198 91.5497 16.1198C90.5861 16.1198 89.7112 16.3496 88.9251 16.809C88.139 17.2685 87.505 17.9067 87.0232 18.7235C86.5668 19.5403 86.3385 20.4848 86.3385 21.5569C86.3385 22.6035 86.5795 23.548 87.0613 24.3903C87.5431 25.2072 88.1897 25.8709 89.0012 26.3814C89.8127 26.8664 90.7002 27.1089 91.6638 27.1089Z" fill="white"/>
<path d="M139.23 29.9806C138.088 29.9806 136.985 29.7891 135.92 29.4062C134.881 28.9978 134.018 28.398 133.334 27.6066L134.855 25.539C135.489 26.1772 136.161 26.6622 136.871 26.994C137.581 27.3003 138.266 27.4535 138.925 27.4535C139.686 27.4535 140.345 27.3003 140.903 26.994C141.486 26.6877 141.778 26.1644 141.778 25.4242C141.778 24.8626 141.588 24.4159 141.208 24.084C140.853 23.7522 140.383 23.4969 139.8 23.3182C139.242 23.114 138.659 22.9098 138.05 22.7056C135.362 21.8377 134.018 20.2934 134.018 18.0726C134.018 17.2557 134.221 16.4772 134.627 15.7369C135.058 14.9967 135.679 14.3968 136.491 13.9373C137.328 13.4779 138.355 13.2481 139.572 13.2481C140.662 13.2481 141.639 13.3885 142.501 13.6693C143.363 13.9501 144.174 14.3968 144.935 15.0094L143.528 17.1919C143.071 16.7325 142.526 16.3879 141.892 16.1581C141.284 15.9029 140.726 15.7625 140.219 15.7369C139.534 15.7369 138.925 15.9029 138.393 16.2347C137.886 16.5665 137.632 17.026 137.632 17.6131C137.607 18.1492 137.771 18.5831 138.126 18.915C138.482 19.2213 138.938 19.4765 139.496 19.6807C140.079 19.885 140.662 20.0764 141.246 20.2551C142.387 20.638 143.35 21.1613 144.136 21.8249C144.948 22.4886 145.354 23.4586 145.354 24.7349C145.354 26.1644 144.846 27.4024 143.832 28.449C142.818 29.4701 141.284 29.9806 139.23 29.9806Z" fill="white"/>
<path d="M151.828 6.8538H155.403V13.8608H159.702V16.6942H155.403V29.6743H151.828V16.6942H148.937V13.8608H151.828V6.8538Z" fill="white"/>
<path d="M171.316 30.0572C169.541 30.0572 167.995 29.6998 166.676 28.9851C165.383 28.2448 164.381 27.2365 163.671 25.9602C162.986 24.6839 162.644 23.2417 162.644 21.6335C162.644 20.0764 163.024 18.6597 163.785 17.3834C164.571 16.0815 165.624 15.0605 166.942 14.3202C168.286 13.5544 169.77 13.1715 171.393 13.1715C173.472 13.1715 175.196 13.7842 176.566 15.0094C177.935 16.2347 178.873 17.9194 179.381 20.0636L166.904 24.4669C167.335 25.2582 167.944 25.8836 168.73 26.3431C169.516 26.777 170.404 26.994 171.393 26.994C172.103 26.994 172.775 26.8664 173.409 26.6111C174.043 26.3559 174.651 26.024 175.234 25.6156L176.87 28.2576C176.059 28.7936 175.158 29.2276 174.169 29.5594C173.206 29.8912 172.255 30.0572 171.316 30.0572ZM166.143 21.4421C166.118 21.7484 166.131 22.0419 166.181 22.3227L175.348 18.915C174.993 18.1492 174.474 17.4727 173.789 16.8856C173.13 16.2985 172.242 16.005 171.126 16.005C169.681 16.005 168.489 16.5155 167.551 17.5365C166.613 18.5576 166.143 19.8594 166.143 21.4421Z" fill="white"/>
<path d="M193.094 30.0572C191.953 30.0572 190.85 29.8147 189.785 29.3297C188.745 28.8191 187.921 28.1427 187.313 27.3003V37.2939H183.775V13.5544H186.856L187.16 16.2347C187.921 15.3413 188.859 14.6138 189.975 14.0522C191.116 13.4651 192.372 13.1715 193.741 13.1715C195.237 13.1715 196.568 13.5289 197.735 14.2437C198.927 14.9584 199.865 15.9539 200.55 17.2302C201.234 18.5065 201.577 19.9998 201.577 21.7101C201.577 23.4203 201.196 24.9009 200.436 26.1516C199.7 27.4024 198.686 28.3724 197.393 29.0616C196.125 29.7253 194.692 30.0572 193.094 30.0572ZM192.41 27.1855C193.399 27.1855 194.312 26.9557 195.148 26.4963C196.011 26.0113 196.695 25.3603 197.202 24.5435C197.71 23.7267 197.963 22.7949 197.963 21.7484C197.963 20.6763 197.722 19.7318 197.24 18.915C196.759 18.0726 196.112 17.4217 195.3 16.9622C194.514 16.4772 193.627 16.2347 192.638 16.2347C191.268 16.2347 190.115 16.6176 189.176 17.3834C188.238 18.1492 187.617 19.1447 187.313 20.37V23.0502C187.515 24.2499 188.086 25.2455 189.024 26.0368C189.988 26.8026 191.116 27.1855 192.41 27.1855Z" fill="white"/>
<path d="M121.132 23.2927C121.132 25.0549 119.713 26.4835 117.962 26.4835C116.212 26.4835 114.792 25.0549 114.792 23.2927C114.792 21.5305 116.212 20.1019 117.962 20.1019C119.713 20.1019 121.132 21.5305 121.132 23.2927Z" fill="white"/>
<path d="M0.72151 47.7554V40.0656H2.81359C3.5673 40.0656 4.2083 40.1826 4.7366 40.4166C5.26491 40.6435 5.69107 40.9484 6.01509 41.3313C6.34616 41.7142 6.58566 42.1396 6.73359 42.6076C6.88855 43.0685 6.96604 43.5329 6.96604 44.0009C6.96604 44.5752 6.8639 45.0964 6.65962 45.5644C6.45535 46.0253 6.17711 46.4188 5.82491 46.745C5.47271 47.0711 5.06767 47.3228 4.60981 47.5001C4.15899 47.6703 3.68352 47.7554 3.1834 47.7554H0.72151ZM1.74642 46.7556H2.98264C3.53912 46.7556 4.03572 46.6457 4.47245 46.4259C4.91623 46.2061 5.26491 45.887 5.51849 45.4686C5.77208 45.0432 5.89887 44.5291 5.89887 43.9264C5.89887 43.3025 5.76503 42.7777 5.49736 42.3523C5.23673 41.9269 4.88805 41.6043 4.45132 41.3844C4.02164 41.1646 3.56377 41.0547 3.07774 41.0547H1.74642V46.7556Z" fill="white"/>
<path d="M18.1967 40.0656H23.1628V41.0547H19.2217V43.3946H22.7401V44.3838H19.2217V46.7556H23.3107V47.7554H18.1967V40.0656Z" fill="white"/>
<path d="M38.5609 41.4376C38.3003 41.3029 38.015 41.1859 37.705 41.0866C37.3951 40.9874 37.0957 40.9377 36.8069 40.9377C36.3913 40.9377 36.0603 41.0335 35.8137 41.2249C35.5742 41.4164 35.4545 41.6752 35.4545 42.0013C35.4545 42.2353 35.532 42.4339 35.6869 42.5969C35.8489 42.76 36.0532 42.9054 36.2998 43.033C36.5533 43.1536 36.821 43.267 37.1028 43.3734C37.4198 43.4939 37.7262 43.6393 38.022 43.8094C38.3179 43.9796 38.5609 44.2101 38.7511 44.5008C38.9483 44.7844 39.0469 45.1673 39.0469 45.6495C39.0469 46.0607 38.9448 46.433 38.7405 46.7662C38.5362 47.0924 38.2474 47.3548 37.8741 47.5533C37.5008 47.7447 37.057 47.8405 36.5428 47.8405C36.0356 47.8405 35.5637 47.7589 35.1269 47.5958C34.6972 47.4327 34.331 47.2448 34.0281 47.0321L34.4824 46.2132C34.7289 46.4046 35.0318 46.5712 35.3911 46.7131C35.7574 46.8549 36.106 46.9258 36.4371 46.9258C36.6837 46.9258 36.9231 46.8832 37.1556 46.7981C37.3951 46.713 37.5923 46.5783 37.7473 46.394C37.9023 46.2025 37.9798 45.9579 37.9798 45.6601C37.9798 45.4048 37.9093 45.1886 37.7684 45.0113C37.6276 44.834 37.4444 44.6851 37.219 44.5646C37.0006 44.437 36.7611 44.3235 36.5005 44.2242C36.261 44.1392 36.018 44.0399 35.7715 43.9264C35.5249 43.813 35.296 43.6783 35.0847 43.5223C34.8804 43.3592 34.7148 43.1606 34.5881 42.9267C34.4613 42.6927 34.3979 42.409 34.3979 42.0758C34.3979 41.6716 34.493 41.3206 34.6832 41.0228C34.8804 40.7179 35.1481 40.4804 35.4862 40.3102C35.8243 40.1329 36.2152 40.0372 36.659 40.023C37.145 40.023 37.5747 40.0833 37.9481 40.2039C38.3284 40.3244 38.663 40.4697 38.9518 40.6399L38.5609 41.4376Z" fill="white"/>
<path d="M50.2684 40.0656H51.2933V47.7554H50.2684V40.0656Z" fill="white"/>
<path d="M68.9881 47.0959C68.8402 47.2165 68.6253 47.3335 68.3436 47.4469C68.0618 47.5604 67.7589 47.6561 67.4349 47.7341C67.1109 47.805 66.8045 47.8405 66.5157 47.8405C65.7056 47.8405 65.0012 47.6774 64.4024 47.3512C63.8037 47.0179 63.3388 46.5677 63.0077 46.0004C62.6837 45.4261 62.5217 44.7773 62.5217 44.0541C62.5217 43.4088 62.6238 42.8345 62.8281 42.331C63.0394 41.8276 63.3247 41.4022 63.684 41.0547C64.0502 40.7002 64.4694 40.4343 64.9413 40.257C65.4133 40.0727 65.9134 39.9805 66.4417 39.9805C66.8855 39.9805 67.2975 40.0337 67.6779 40.14C68.0583 40.2464 68.3929 40.3811 68.6817 40.5442L68.3436 41.4908C68.1956 41.4057 68.016 41.3277 67.8047 41.2568C67.6004 41.1859 67.3891 41.1292 67.1707 41.0866C66.9524 41.0441 66.7516 41.0228 66.5685 41.0228C65.9697 41.0228 65.445 41.1434 64.9941 41.3844C64.5433 41.6255 64.1946 41.9659 63.9481 42.4055C63.7016 42.8451 63.5783 43.3663 63.5783 43.969C63.5783 44.5291 63.7016 45.0255 63.9481 45.458C64.1946 45.8834 64.5398 46.2167 64.9836 46.4578C65.4273 46.6918 65.9451 46.8088 66.5368 46.8088C66.7904 46.8088 67.044 46.784 67.2975 46.7343C67.5511 46.6847 67.766 46.6067 67.9421 46.5003V44.99H66.4311V43.9902H68.9881V47.0959Z" fill="white"/>
<path d="M87.0767 48L81.4661 42.2779L81.4872 47.7554H80.4518V39.8316H80.5046L86.1046 45.6388L86.0835 40.0656H87.1084V48H87.0767Z" fill="white"/>
<path d="M115.619 41.4376C115.358 41.3029 115.073 41.1859 114.763 41.0866C114.453 40.9874 114.154 40.9377 113.865 40.9377C113.449 40.9377 113.118 41.0335 112.871 41.2249C112.632 41.4164 112.512 41.6752 112.512 42.0013C112.512 42.2353 112.59 42.4339 112.745 42.5969C112.907 42.76 113.111 42.9054 113.358 43.033C113.611 43.1536 113.879 43.267 114.161 43.3734C114.478 43.4939 114.784 43.6393 115.08 43.8094C115.376 43.9796 115.619 44.2101 115.809 44.5008C116.006 44.7844 116.105 45.1673 116.105 45.6495C116.105 46.0607 116.003 46.433 115.798 46.7662C115.594 47.0924 115.305 47.3548 114.932 47.5533C114.559 47.7447 114.115 47.8405 113.601 47.8405C113.093 47.8405 112.621 47.7589 112.185 47.5958C111.755 47.4327 111.389 47.2448 111.086 47.0321L111.54 46.2132C111.787 46.4046 112.09 46.5712 112.449 46.7131C112.815 46.8549 113.164 46.9258 113.495 46.9258C113.741 46.9258 113.981 46.8832 114.213 46.7981C114.453 46.713 114.65 46.5783 114.805 46.394C114.96 46.2025 115.038 45.9579 115.038 45.6601C115.038 45.4048 114.967 45.1886 114.826 45.0113C114.685 44.834 114.502 44.6851 114.277 44.5646C114.058 44.437 113.819 44.3235 113.558 44.2242C113.319 44.1392 113.076 44.0399 112.829 43.9264C112.583 43.813 112.354 43.6783 112.142 43.5223C111.938 43.3592 111.773 43.1606 111.646 42.9267C111.519 42.6927 111.456 42.409 111.456 42.0758C111.456 41.6716 111.551 41.3206 111.741 41.0228C111.938 40.7179 112.206 40.4804 112.544 40.3102C112.882 40.1329 113.273 40.0372 113.717 40.023C114.203 40.023 114.632 40.0833 115.006 40.2039C115.386 40.3244 115.721 40.4697 116.01 40.6399L115.619 41.4376Z" fill="white"/>
<path d="M126.715 40.0656H131.786V41.0547H129.736V47.7554H128.712V41.0547H126.715V40.0656Z" fill="white"/>
<path d="M143.864 45.0326C143.864 45.3729 143.945 45.6814 144.107 45.9579C144.269 46.2273 144.487 46.4436 144.762 46.6067C145.043 46.7627 145.353 46.8407 145.691 46.8407C146.051 46.8407 146.368 46.7627 146.642 46.6067C146.924 46.4436 147.146 46.2273 147.308 45.9579C147.477 45.6814 147.562 45.3729 147.562 45.0326V40.0656H148.565V45.0645C148.565 45.6246 148.435 46.1139 148.175 46.5322C147.921 46.9506 147.576 47.2732 147.139 47.5001C146.709 47.727 146.227 47.8405 145.691 47.8405C145.156 47.8405 144.674 47.727 144.244 47.5001C143.814 47.2732 143.473 46.9506 143.219 46.5322C142.965 46.1139 142.839 45.6246 142.839 45.0645V40.0656H143.864V45.0326Z" fill="white"/>
<path d="M160.182 47.7554V40.0656H162.274C163.028 40.0656 163.669 40.1826 164.197 40.4166C164.725 40.6435 165.152 40.9484 165.476 41.3313C165.807 41.7142 166.046 42.1396 166.194 42.6076C166.349 43.0685 166.427 43.5329 166.427 44.0009C166.427 44.5752 166.324 45.0964 166.12 45.5644C165.916 46.0253 165.638 46.4188 165.285 46.745C164.933 47.0711 164.528 47.3228 164.07 47.5001C163.619 47.6703 163.144 47.7554 162.644 47.7554H160.182ZM161.207 46.7556H162.443C163 46.7556 163.496 46.6457 163.933 46.4259C164.377 46.2061 164.725 45.887 164.979 45.4686C165.233 45.0432 165.359 44.5291 165.359 43.9264C165.359 43.3025 165.226 42.7777 164.958 42.3523C164.697 41.9269 164.349 41.6043 163.912 41.3844C163.482 41.1646 163.024 41.0547 162.538 41.0547H161.207V46.7556Z" fill="white"/>
<path d="M177.657 40.0656H178.682V47.7554H177.657V40.0656Z" fill="white"/>
<path d="M189.911 43.9158C189.911 43.384 190.009 42.8806 190.206 42.4055C190.411 41.9304 190.692 41.5121 191.052 41.1505C191.411 40.7888 191.823 40.5052 192.288 40.2996C192.76 40.0869 193.264 39.9805 193.799 39.9805C194.334 39.9805 194.838 40.0869 195.31 40.2996C195.789 40.5052 196.208 40.7888 196.567 41.1505C196.926 41.5121 197.208 41.9304 197.412 42.4055C197.617 42.8806 197.719 43.384 197.719 43.9158C197.719 44.4618 197.617 44.9723 197.412 45.4474C197.208 45.9154 196.926 46.3302 196.567 46.6918C196.208 47.0534 195.789 47.337 195.31 47.5427C194.838 47.7412 194.334 47.8405 193.799 47.8405C193.264 47.8405 192.76 47.7412 192.288 47.5427C191.823 47.3441 191.411 47.0676 191.052 46.7131C190.692 46.3585 190.411 45.9437 190.206 45.4686C190.009 44.9865 189.911 44.4689 189.911 43.9158ZM190.967 43.9264C190.967 44.3306 191.041 44.7099 191.189 45.0645C191.337 45.4119 191.541 45.7204 191.802 45.9898C192.062 46.2593 192.365 46.4684 192.711 46.6173C193.056 46.7662 193.429 46.8407 193.831 46.8407C194.359 46.8407 194.834 46.713 195.257 46.4578C195.687 46.1954 196.028 45.8444 196.282 45.4048C196.535 44.9581 196.662 44.4618 196.662 43.9158C196.662 43.5116 196.588 43.1323 196.44 42.7778C196.292 42.4161 196.088 42.1006 195.828 41.8312C195.567 41.5617 195.264 41.3525 194.919 41.2036C194.574 41.0476 194.204 40.9696 193.809 40.9696C193.274 40.9696 192.792 41.1044 192.362 41.3738C191.932 41.6432 191.591 42.0013 191.337 42.448C191.09 42.8947 190.967 43.3875 190.967 43.9264Z" fill="white"/>
</svg>
